<?xml version="1.0" encoding="utf-8"?>
<!-- Generator: Adobe Illustrator 22.0.1, SVG Export Plug-In . SVG Version: 6.00 Build 0)  -->
<svg version="1.1" id="Capa_1" xmlns="http://www.w3.org/2000/svg" xmlns:xlink="http://www.w3.org/1999/xlink" x="0px" y="0px"
	 viewBox="0 0 612 792" style="enable-background:new 0 0 612 792;" xml:space="preserve">
<style type="text/css">
	.st0{fill-rule:evenodd;clip-rule:evenodd;fill:#FFFFFF;}
	.st1{display:none;fill:#FFFFFF;}
</style>
<path class="st0" d="M219.9,332.3V569c0,3.4,2.8,6.2,6.2,6.2H314c3.4,0,6.2-2.8,6.2-6.2V328.4h63.7c3.2,0,5.9-2.5,6.1-5.6l6.1-72.5
	c0.3-3.6-2.5-6.7-6.1-6.7h-69.8v-51.4c0-12.1,9.8-21.8,21.8-21.8H391c3.4,0,6.2-2.8,6.2-6.2V91.8c0-3.4-2.8-6.2-6.2-6.2h-83
	c-48.7,0-88.2,39.5-88.2,88.2v69.9H176c-3.4,0-6.2,2.8-6.2,6.2v72.5c0,3.4,2.8,6.2,6.2,6.2h43.9V332.3z"/>
<path class="st1" d="M1307,238.1c0-84.2-68.3-152.5-152.5-152.5h-390c-84.2,0-152.5,68.3-152.5,152.5v181.5
	c0,84.2,68.3,152.5,152.5,152.5h390c84.2,0,152.5-68.3,152.5-152.5V238.1z M1077.7,349.7l-174.9,86.5c-6.9,3.7-30.2-1.3-30.2-9.1
	V249.6c0-7.9,23.5-12.9,30.3-8.9l167.4,91.1C1077.4,335.7,1084.8,345.9,1077.7,349.7z"/>
</svg>
