<?xml version="1.0" encoding="utf-8"?>
<!-- Generator: Adobe Illustrator 22.0.1, SVG Export Plug-In . SVG Version: 6.00 Build 0)  -->
<svg version="1.1" id="Capa_1" xmlns="http://www.w3.org/2000/svg" xmlns:xlink="http://www.w3.org/1999/xlink" x="0px" y="0px"
	 viewBox="0 0 612 792" style="enable-background:new 0 0 612 792;" xml:space="preserve">
<style type="text/css">
	.st0{fill:#FFFFFF;}
</style>
<g>
	<circle class="st0" cx="438.5" cy="225.3" r="28.3"/>
	<path class="st0" d="M312.7,222.6c-65.5,0-118.9,53.3-118.9,118.9s53.3,118.9,118.9,118.9c65.5,0,118.9-53.3,118.9-118.9
		S378.3,222.6,312.7,222.6z M312.7,417.7c-42,0-76.2-34.2-76.2-76.1c0-42,34.2-76.1,76.2-76.1c42,0,76.1,34.2,76.1,76.1
		C388.9,383.5,354.7,417.7,312.7,417.7z"/>
	<path class="st0" d="M407.1,582.9H214.4c-80,0-145-65-145-145V245.2c0-80,65-145,145-145h192.7c79.9,0,145,65,145,145v192.7
		C552.1,517.8,487,582.9,407.1,582.9z M214.4,145.6c-54.9,0-99.6,44.7-99.6,99.6v192.7c0,54.9,44.7,99.6,99.6,99.6h192.7
		c54.9,0,99.6-44.7,99.6-99.6V245.2c0-54.9-44.7-99.6-99.6-99.6H214.4z"/>
</g>
</svg>
