<?xml version="1.0" encoding="utf-8"?>
<!-- Generator: Adobe Illustrator 22.0.1, SVG Export Plug-In . SVG Version: 6.00 Build 0)  -->
<svg version="1.1" id="Capa_1" xmlns="http://www.w3.org/2000/svg" xmlns:xlink="http://www.w3.org/1999/xlink" x="0px" y="0px"
	 viewBox="0 0 120 468.2" style="enable-background:new 0 0 120 468.2;" xml:space="preserve">
<style type="text/css">
	.st0{opacity:0.67;}
	.st1{fill:#8AB88F;}
	.st2{fill:#C2382F;}
	.st3{fill:#E8BD2F;}
</style>
<g class="st0">
	<polygon class="st1" points="118.9,176.9 118.9,102.9 118.9,28.9 44.9,102.9 	"/>
	<polygon class="st1" points="118.9,335.6 118.9,261.6 118.9,187.6 44.9,261.6 	"/>
	<polygon class="st1" points="20.1,215.1 39.7,234.7 92,182.3 39.7,130 20.1,149.6 52.8,182.3 	"/>
	<polyline class="st2" points="0.5,234.7 20.1,215.1 52.8,182.3 20.1,149.6 0.5,130 	"/>
	<polyline class="st2" points="0.5,103.7 20.1,84.1 52.8,51.3 20.1,18.6 0.5,-1 	"/>
	<polygon class="st3" points="98.6,420.1 98.6,395.8 74.3,420.1 	"/>
	<polygon class="st3" points="74.3,444.4 74.3,420.1 50,444.4 	"/>
	<polygon class="st3" points="50,468.7 50,444.4 25.7,468.7 	"/>
	<polygon class="st2" points="0.5,271.9 0.5,315.2 52.8,367.5 0.5,419.8 0.5,463.2 96.2,367.5 	"/>
</g>
</svg>
