<?xml version="1.0" encoding="utf-8"?>
<!-- Generator: Adobe Illustrator 22.0.1, SVG Export Plug-In . SVG Version: 6.00 Build 0)  -->
<svg version="1.1" id="Capa_1" xmlns="http://www.w3.org/2000/svg" xmlns:xlink="http://www.w3.org/1999/xlink" x="0px" y="0px"
	 viewBox="0 0 120 468.2" style="enable-background:new 0 0 120 468.2;" xml:space="preserve">
<style type="text/css">
	.st0{opacity:0.67;}
	.st1{fill:#8AB88F;}
	.st2{fill:#C2382F;}
	.st3{fill:#E8BD2F;}
</style>
<g class="st0">
	<polygon class="st1" points="0.8,176.6 0.8,102.6 0.8,28.6 74.8,102.6 	"/>
	<polygon class="st1" points="0.8,335.4 0.8,261.3 0.8,187.3 74.8,261.3 	"/>
	<polygon class="st1" points="99.6,214.8 80,234.4 27.7,182.1 80,129.7 99.6,149.3 66.9,182.1 	"/>
	<polyline class="st2" points="119.2,234.4 99.6,214.8 66.9,182.1 99.6,149.3 119.2,129.7 	"/>
	<polyline class="st2" points="119.2,103.4 99.6,83.8 66.9,51.1 99.6,18.3 119.2,-1.3 	"/>
	<polygon class="st3" points="21.1,419.8 21.1,395.5 45.4,419.8 	"/>
	<polygon class="st3" points="45.4,444.1 45.4,419.8 69.7,444.1 	"/>
	<polygon class="st3" points="69.7,468.4 69.7,444.1 94,468.4 	"/>
	<polygon class="st2" points="119.2,271.6 119.2,314.9 66.9,367.2 119.2,419.6 119.2,462.9 23.6,367.2 	"/>
</g>
</svg>
