<?xml version="1.0" encoding="utf-8"?>
<!-- Generator: Adobe Illustrator 22.0.1, SVG Export Plug-In . SVG Version: 6.00 Build 0)  -->
<svg version="1.1" id="Capa_1" xmlns="http://www.w3.org/2000/svg" xmlns:xlink="http://www.w3.org/1999/xlink" x="0px" y="0px"
	 viewBox="0 0 175.5 366.5" style="enable-background:new 0 0 175.5 366.5;" xml:space="preserve">
<style type="text/css">
	.st0{opacity:0.4;fill:#C2382F;}
	.st1{opacity:0.4;}
	.st2{fill:#E8BD2F;}
	.st3{fill:#C2382F;}
</style>
<g>
	<path class="st0" d="M115.2,363.9l52.5-52.5l-52.5-52.5l-52.5,52.5L115.2,363.9z M144,311.4l-28.7,28.7l-28.7-28.7l28.7-28.7
		L144,311.4z"/>
	<g>
		<g class="st1">
			<polygon class="st2" points="87.1,128.8 87.1,142.2 100.4,128.8 			"/>
			<polygon class="st2" points="141.4,128.8 128.1,128.8 141.4,142.2 			"/>
			<path class="st3" d="M114.2,236.9l52.5-52.5l-52.5-52.5l-52.5,52.5L114.2,236.9z M143,184.4l-28.7,28.7l-28.7-28.7l28.7-28.7
				L143,184.4z"/>
			<polygon class="st2" points="141.4,117 141.4,103.7 128.1,117 			"/>
			<polygon class="st2" points="87.1,117 100.4,117 87.1,103.7 			"/>
			<path class="st3" d="M114.2,8.9L61.7,61.4l52.5,52.5l52.5-52.5L114.2,8.9z M85.5,61.4l28.7-28.7L143,61.4l-28.7,28.7L85.5,61.4z"
				/>
		</g>
		<g class="st1">
			<path class="st3" d="M0.7,0.4l52.5,52.5l52.5-52.5 M82,0.4L53.2,29.1L24.5,0.4"/>
		</g>
	</g>
	<g class="st1">
		<path class="st3" d="M176.5,194.1L124,246.6l52.5,52.5 M176.5,275.4l-28.7-28.7l28.7-28.7"/>
	</g>
	<path class="st0" d="M53.2,193.9L0.7,246.4l52.5,52.5l52.5-52.5L53.2,193.9z M24.5,246.4l28.7-28.7L82,246.4l-28.7,28.7L24.5,246.4
		z"/>
</g>
</svg>
