<?xml version="1.0" encoding="utf-8"?>
<!-- Generator: Adobe Illustrator 22.0.1, SVG Export Plug-In . SVG Version: 6.00 Build 0)  -->
<svg version="1.1" id="Capa_1" xmlns="http://www.w3.org/2000/svg" xmlns:xlink="http://www.w3.org/1999/xlink" x="0px" y="0px"
	 viewBox="0 0 392 353.5" style="enable-background:new 0 0 392 353.5;" xml:space="preserve">
<style type="text/css">
	.st0{fill:#E8BD2F;}
	.st1{fill:#FFFFFF;}
	.st2{fill:#8AB88F;}
</style>
<polygon class="st0" points="129.1,68 20.4,176.6 129.1,285.3 194.1,350.3 259.1,285.3 367.7,176.6 259.1,68 194.1,3 "/>
<polygon class="st1" points="144.2,232.3 235.4,232.3 257.5,272.8 128.7,272.8 "/>
<path class="st2" d="M237.2,91.7c-26.4-26.4-69.2-26.4-95.6,0c-23.8,23.8-26.5,68.6-6.3,95.5l54.1,78.1l54.1-78.1
	C263.7,160.3,261,115.5,237.2,91.7 M190,161.2c-12.3,0-22.3-10-22.3-22.3c0-12.3,10-22.3,22.3-22.3c12.3,0,22.3,10,22.3,22.3
	C212.4,151.2,202.4,161.2,190,161.2"/>
</svg>
